<mxfile host="65bd71144e">
    <diagram id="2fPi6oSaLmizoBJPyOhD" name="Page-1">
        <mxGraphModel dx="1192" dy="787" grid="1" gridSize="10" guides="1" tooltips="1" connect="1" arrows="1" fold="1" page="1" pageScale="1" pageWidth="850" pageHeight="1100" math="0" shadow="0">
            <root>
                <mxCell id="0"/>
                <mxCell id="1" parent="0"/>
                <mxCell id="2" value="" style="rounded=1;whiteSpace=wrap;html=1;arcSize=3;" vertex="1" parent="1">
                    <mxGeometry x="70" y="50" width="1300" height="610" as="geometry"/>
                </mxCell>
                <mxCell id="3" value="SQL Query Explainer" style="text;html=1;strokeColor=none;fillColor=none;align=center;verticalAlign=middle;whiteSpace=wrap;rounded=0;" vertex="1" parent="1">
                    <mxGeometry x="635" y="50" width="170" height="30" as="geometry"/>
                </mxCell>
                <mxCell id="6" value="" style="rounded=0;whiteSpace=wrap;html=1;fillColor=#FFFFFF;" vertex="1" parent="1">
                    <mxGeometry x="245" y="100" width="340" height="20" as="geometry"/>
                </mxCell>
                <mxCell id="7" value="" style="rounded=0;whiteSpace=wrap;html=1;fillColor=#FFFFFF;" vertex="1" parent="1">
                    <mxGeometry x="245" y="140" width="340" height="20" as="geometry"/>
                </mxCell>
                <mxCell id="8" value="" style="rounded=0;whiteSpace=wrap;html=1;fillColor=#FFFFFF;" vertex="1" parent="1">
                    <mxGeometry x="245" y="180" width="340" height="20" as="geometry"/>
                </mxCell>
                <mxCell id="10" value="SELECT Statement" style="text;html=1;strokeColor=none;fillColor=none;align=center;verticalAlign=middle;whiteSpace=wrap;rounded=0;" vertex="1" parent="1">
                    <mxGeometry x="110" y="95" width="130" height="30" as="geometry"/>
                </mxCell>
                <mxCell id="11" value="FROM Statement" style="text;html=1;strokeColor=none;fillColor=none;align=center;verticalAlign=middle;whiteSpace=wrap;rounded=0;" vertex="1" parent="1">
                    <mxGeometry x="110" y="135" width="130" height="30" as="geometry"/>
                </mxCell>
                <mxCell id="12" value="WHERE Statement" style="text;html=1;strokeColor=none;fillColor=none;align=center;verticalAlign=middle;whiteSpace=wrap;rounded=0;" vertex="1" parent="1">
                    <mxGeometry x="110" y="175" width="130" height="30" as="geometry"/>
                </mxCell>
                <mxCell id="15" value="QEP chosen by DMBS:" style="text;html=1;strokeColor=none;fillColor=none;align=left;verticalAlign=middle;whiteSpace=wrap;rounded=0;" vertex="1" parent="1">
                    <mxGeometry x="115" y="263" width="130" height="30" as="geometry"/>
                </mxCell>
                <mxCell id="18" value="&lt;font color=&quot;#000000&quot;&gt;Seq Scan on customer (Total Cost: 1234)&lt;br&gt;Hash (Total Cost: 456)&lt;br&gt;Hash Join (Total Cost: 999)&lt;br&gt;&lt;br&gt;&lt;/font&gt;" style="rounded=1;whiteSpace=wrap;html=1;fillColor=#FFFFFF;arcSize=3;align=left;" vertex="1" parent="1">
                    <mxGeometry x="340" y="293" width="340" height="177" as="geometry"/>
                </mxCell>
                <mxCell id="30" value="Your custom AQP:" style="text;html=1;strokeColor=none;fillColor=none;align=left;verticalAlign=middle;whiteSpace=wrap;rounded=0;" vertex="1" parent="1">
                    <mxGeometry x="735" y="263" width="130" height="30" as="geometry"/>
                </mxCell>
                <mxCell id="36" value="" style="rounded=1;whiteSpace=wrap;html=1;labelBackgroundColor=#FFFFFF;fontColor=#000000;fillColor=#FFFFFF;" vertex="1" parent="1">
                    <mxGeometry x="740" y="95" width="550" height="115" as="geometry"/>
                </mxCell>
                <mxCell id="37" value="enable_hashjoin" style="text;html=1;strokeColor=none;fillColor=none;align=center;verticalAlign=middle;whiteSpace=wrap;rounded=0;labelBackgroundColor=#FFFFFF;fontColor=#000000;" vertex="1" parent="1">
                    <mxGeometry x="805" y="110" width="60" height="30" as="geometry"/>
                </mxCell>
                <mxCell id="38" value="" style="rounded=0;whiteSpace=wrap;html=1;labelBackgroundColor=#000000;fontColor=#000000;fillColor=#FFFFFF;labelBorderColor=#000000;" vertex="1" parent="1">
                    <mxGeometry x="760" y="115" width="20" height="20" as="geometry"/>
                </mxCell>
                <mxCell id="39" value="Generate AQP" style="rounded=1;whiteSpace=wrap;html=1;labelBackgroundColor=#FFFFFF;fontColor=#000000;fillColor=#FFFFFF;" vertex="1" parent="1">
                    <mxGeometry x="1170" y="220" width="115" height="25" as="geometry"/>
                </mxCell>
                <mxCell id="40" value="enable_hashjoin" style="text;html=1;strokeColor=none;fillColor=none;align=center;verticalAlign=middle;whiteSpace=wrap;rounded=0;labelBackgroundColor=#FFFFFF;fontColor=#000000;" vertex="1" parent="1">
                    <mxGeometry x="815" y="120" width="60" height="30" as="geometry"/>
                </mxCell>
                <mxCell id="41" value="" style="rounded=0;whiteSpace=wrap;html=1;labelBackgroundColor=#000000;fontColor=#000000;fillColor=#FFFFFF;labelBorderColor=#000000;" vertex="1" parent="1">
                    <mxGeometry x="770" y="125" width="20" height="20" as="geometry"/>
                </mxCell>
                <mxCell id="42" value="enable_hashjoin" style="text;html=1;strokeColor=none;fillColor=none;align=center;verticalAlign=middle;whiteSpace=wrap;rounded=0;labelBackgroundColor=#FFFFFF;fontColor=#000000;" vertex="1" parent="1">
                    <mxGeometry x="825" y="130" width="60" height="30" as="geometry"/>
                </mxCell>
                <mxCell id="43" value="" style="rounded=0;whiteSpace=wrap;html=1;labelBackgroundColor=#000000;fontColor=#000000;fillColor=#FFFFFF;labelBorderColor=#000000;" vertex="1" parent="1">
                    <mxGeometry x="780" y="135" width="20" height="20" as="geometry"/>
                </mxCell>
                <mxCell id="44" value="enable_hashjoin" style="text;html=1;strokeColor=none;fillColor=none;align=center;verticalAlign=middle;whiteSpace=wrap;rounded=0;labelBackgroundColor=#FFFFFF;fontColor=#000000;" vertex="1" parent="1">
                    <mxGeometry x="835" y="140" width="60" height="30" as="geometry"/>
                </mxCell>
                <mxCell id="45" value="" style="rounded=0;whiteSpace=wrap;html=1;labelBackgroundColor=#000000;fontColor=#000000;fillColor=#FFFFFF;labelBorderColor=#000000;" vertex="1" parent="1">
                    <mxGeometry x="790" y="145" width="20" height="20" as="geometry"/>
                </mxCell>
                <mxCell id="46" value="enable_hashjoin" style="text;html=1;strokeColor=none;fillColor=none;align=center;verticalAlign=middle;whiteSpace=wrap;rounded=0;labelBackgroundColor=#FFFFFF;fontColor=#000000;" vertex="1" parent="1">
                    <mxGeometry x="845" y="150" width="60" height="30" as="geometry"/>
                </mxCell>
                <mxCell id="47" value="" style="rounded=0;whiteSpace=wrap;html=1;labelBackgroundColor=#000000;fontColor=#000000;fillColor=#FFFFFF;labelBorderColor=#000000;" vertex="1" parent="1">
                    <mxGeometry x="800" y="155" width="20" height="20" as="geometry"/>
                </mxCell>
                <mxCell id="48" value="enable_hashjoin" style="text;html=1;strokeColor=none;fillColor=none;align=center;verticalAlign=middle;whiteSpace=wrap;rounded=0;labelBackgroundColor=#FFFFFF;fontColor=#000000;" vertex="1" parent="1">
                    <mxGeometry x="855" y="160" width="60" height="30" as="geometry"/>
                </mxCell>
                <mxCell id="49" value="" style="rounded=0;whiteSpace=wrap;html=1;labelBackgroundColor=#000000;fontColor=#000000;fillColor=#FFFFFF;labelBorderColor=#000000;" vertex="1" parent="1">
                    <mxGeometry x="810" y="165" width="20" height="20" as="geometry"/>
                </mxCell>
                <mxCell id="50" value="enable_hashjoin" style="text;html=1;strokeColor=none;fillColor=none;align=center;verticalAlign=middle;whiteSpace=wrap;rounded=0;labelBackgroundColor=#FFFFFF;fontColor=#000000;" vertex="1" parent="1">
                    <mxGeometry x="1035" y="110" width="60" height="30" as="geometry"/>
                </mxCell>
                <mxCell id="51" value="" style="rounded=0;whiteSpace=wrap;html=1;labelBackgroundColor=#000000;fontColor=#000000;fillColor=#FFFFFF;labelBorderColor=#000000;" vertex="1" parent="1">
                    <mxGeometry x="990" y="115" width="20" height="20" as="geometry"/>
                </mxCell>
                <mxCell id="52" value="&lt;span style=&quot;background-color: rgb(255 , 255 , 255)&quot;&gt;ggggggg&lt;/span&gt;" style="rounded=1;whiteSpace=wrap;html=1;labelBackgroundColor=#000000;labelBorderColor=#000000;fontColor=#000000;fillColor=#FFFFFF;" vertex="1" parent="1">
                    <mxGeometry x="280" y="520" width="880" height="110" as="geometry"/>
                </mxCell>
                <mxCell id="54" value="Explanation:" style="text;html=1;strokeColor=none;fillColor=none;align=center;verticalAlign=middle;whiteSpace=wrap;rounded=0;labelBackgroundColor=#FFFFFF;labelBorderColor=#000000;fontColor=#000000;" vertex="1" parent="1">
                    <mxGeometry x="260" y="490" width="120" height="30" as="geometry"/>
                </mxCell>
                <mxCell id="55" value="*TREE*" style="rounded=1;whiteSpace=wrap;html=1;labelBackgroundColor=none;labelBorderColor=none;fontColor=#000000;fillColor=#FFFFFF;arcSize=5;" vertex="1" parent="1">
                    <mxGeometry x="115" y="293" width="205" height="177" as="geometry"/>
                </mxCell>
                <mxCell id="56" value="QEP Steps:" style="text;html=1;strokeColor=none;fillColor=none;align=left;verticalAlign=middle;whiteSpace=wrap;rounded=0;" vertex="1" parent="1">
                    <mxGeometry x="340" y="263" width="130" height="30" as="geometry"/>
                </mxCell>
                <mxCell id="57" value="&lt;font color=&quot;#000000&quot;&gt;Seq Scan on customer (Total Cost: 1234)&lt;br&gt;Hash (Total Cost: 456)&lt;br&gt;Hash Join (Total Cost: 999)&lt;br&gt;&lt;br&gt;&lt;/font&gt;" style="rounded=1;whiteSpace=wrap;html=1;fillColor=#FFFFFF;arcSize=3;align=left;" vertex="1" parent="1">
                    <mxGeometry x="960" y="293" width="340" height="177" as="geometry"/>
                </mxCell>
                <mxCell id="58" value="*TREE*" style="rounded=1;whiteSpace=wrap;html=1;labelBackgroundColor=none;labelBorderColor=none;fontColor=#000000;fillColor=#FFFFFF;arcSize=5;" vertex="1" parent="1">
                    <mxGeometry x="735" y="293" width="205" height="177" as="geometry"/>
                </mxCell>
                <mxCell id="59" value="AQP Steps:" style="text;html=1;strokeColor=none;fillColor=none;align=left;verticalAlign=middle;whiteSpace=wrap;rounded=0;" vertex="1" parent="1">
                    <mxGeometry x="960" y="263" width="130" height="30" as="geometry"/>
                </mxCell>
                <mxCell id="60" value="Generate QEP" style="rounded=1;whiteSpace=wrap;html=1;labelBackgroundColor=#FFFFFF;fontColor=#000000;fillColor=#FFFFFF;" vertex="1" parent="1">
                    <mxGeometry x="470" y="220" width="115" height="25" as="geometry"/>
                </mxCell>
            </root>
        </mxGraphModel>
    </diagram>
</mxfile>